PathFileType	4	(X/Y/Z)	Patient4_TMGait_0pt3_03_right_17.trc.trc
DataRate	CameraRate	NumFrames	NumMarkers	Units	OrigDataRate	OrigDataStartFrame	OrigNumFrames
56.000000000000	56.000000000000	7	33	mm	56.000000000000	71	       141
Frame#	Time	Sacral			L.Shoulder			Chest			R.Shoulder			Neck			R.ASIS			L.ASIS			R.Thigh.Superior			R.Thigh.Lateral			R.Thigh.Inferior			R.Patella			L.Thigh.Superior			L.Thigh.Lateral			L.Thigh.Inferior			L.Patella			L.Shank.Superior			L.Shank.Lateral			L.Shank.Inferior			R.Shank.Superior			R.Shank.Lateral			R.Shank.Inferior			R.Heel			R.Midfoot.Superior			R.Midfoot.Lateral			R.Toe			L.Heel			L.Midfoot.Lateral			L.Midfoot.Superior			L.Toe			L.Elbow			L.Wrist			R.Elbow			R.Wrist			
		X1	Y1	Z1	X2	Y2	Z2	X3	Y3	Z3	X4	Y4	Z4	X5	Y5	Z5	X6	Y6	Z6	X7	Y7	Z7	X8	Y8	Z8	X9	Y9	Z9	X10	Y10	Z10	X11	Y11	Z11	X12	Y12	Z12	X13	Y13	Z13	X14	Y14	Z14	X15	Y15	Z15	X16	Y16	Z16	X17	Y17	Z17	X18	Y18	Z18	X19	Y19	Z19	X20	Y20	Z20	X21	Y21	Z21	X22	Y22	Z22	X23	Y23	Z23	X24	Y24	Z24	X25	Y25	Z25	X26	Y26	Z26	X27	Y27	Z27	X28	Y28	Z28	X29	Y29	Z29	X30	Y30	Z30	X31	Y31	Z31	X32	Y32	Z32	X33	Y33	Z33	

71	33.430000000000	576.829958695155	1004.427471445704	499.937051240049	759.145955175736	1424.393042834930	301.131094058547	879.253200437759	1344.773245574754	444.382397356638	830.562703569778	1425.353267807742	626.202783682431	778.530633449482	1483.326794531334	457.059494355449	813.715635073116	926.169297721823	588.442476794483	770.700944242324	954.312169822318	317.586843484867	825.370628124368	718.595283739326	546.902592558092	737.661543948398	614.121495261863	610.976707029830	796.926076447106	557.443946437272	520.461657325762	786.127120472749	464.091412523476	523.523863759226	845.024594488028	767.102309434278	347.913538028972	794.444704781002	640.035997373192	268.435118753466	892.353259197529	579.683273315416	335.304354844775	916.938943650848	517.149952355878	333.006462597819	903.907599335888	446.311586121428	318.791191454340	846.561459211334	316.148842523237	258.693642866903	933.348608776335	218.262224625228	317.204172395161	735.184379513964	382.989209972927	531.873699317482	650.992928551195	295.547677626989	602.978175449832	659.115779769185	197.606971243366	533.461039740905	489.053567265807	50.756087762206	521.180241381407	666.969575374996	96.202672760048	539.554028015441	578.853121749735	40.300830384936	586.732438778505	785.005016135841	37.919858697009	556.943189224893	852.376130698518	37.577110366378	344.774372640474	932.780377507304	44.170426336797	271.262818645980	999.324783221358	123.477738888884	298.798573320441	1135.418145233996	97.883175200236	283.415323224916	603.893865227012	1107.944714949490	203.867727637421	611.530413776427	844.961916843465	215.433124258139	985.311063086034	1123.062932948103	713.468996337301	1181.994505501872	1226.926112909250	599.659686449673	
72	33.447857142857	579.545848754367	1003.473298656663	497.083967523735	761.360284405973	1422.527828417058	296.667971388745	881.396651011998	1343.956719294698	440.582579831302	831.897234167947	1425.444353249648	621.788017903920	780.274587768401	1482.348365527873	452.326515198075	816.080915269625	925.678460612044	587.179806296758	774.186933528798	952.457896749311	316.018317320078	825.621475028401	717.203002268165	546.352795899707	735.763774478902	613.816469549088	610.164296678087	794.365839385023	556.208752602901	520.170280980154	782.060004795056	463.036155881964	523.113527711361	848.211380271431	764.924854970565	346.724174466601	796.195454999447	637.977590631343	267.671731568070	894.174048469885	577.807815770398	334.158355930054	917.597143698043	514.713582842942	332.241371068294	904.580424436881	443.654112501338	317.993064284893	846.225595310495	313.848134958150	258.474501517883	932.244577979255	215.575542783919	317.307305601649	730.829161244039	382.427395637343	531.577312990446	646.108850214630	295.460784438204	602.623873783712	654.124737091470	197.364458506993	533.215275283765	483.654336310563	50.726243242286	520.961751061558	661.662539360923	96.187414561765	539.393270887849	573.423368260582	40.362609731645	586.591027404873	779.624096187888	37.912021952202	556.997394192646	849.415404842066	36.967274316207	345.270341549837	929.723114630813	42.267973899961	271.537313079295	997.547145054478	120.110805560713	299.366797587924	1133.173093810426	92.052770703111	283.756366276140	606.386973126922	1105.761977739631	200.953352076556	614.396542118479	842.778333958005	214.546992164962	990.275470010901	1126.072049053176	709.838782255702	1181.930599268087	1235.526071042890	593.321808403014	
73	33.465714285714	582.311473144069	1002.197287201275	494.145091818914	763.616450114951	1420.203712215742	291.910311014624	883.560981791145	1342.842419586422	436.568682195472	833.217277237869	1425.308277650489	617.145387427459	782.071078770172	1481.082779528207	447.242256957918	818.622190361209	924.935199057083	585.853248433511	777.775702979324	950.371301353551	314.409974940128	826.368528641059	715.648659322070	545.590646818473	734.546303200378	613.230365075761	609.057519506054	792.537670138036	554.808841280859	519.524265952956	778.751022505761	461.720828371070	522.283670456772	851.922492289634	762.903863273925	345.542396530447	798.729918873124	636.015372262324	266.995212707622	896.950682751326	576.167513292233	333.003650818178	919.154548608150	512.259661659297	331.422891011539	905.937007579770	440.865316979948	317.172069156527	846.064947084320	311.648724401996	258.192693938906	930.847150297847	212.642622205428	317.359559045563	727.096678883884	381.640520419192	530.965664495485	641.740101322903	295.311525310293	602.033701705443	649.388723485530	197.039429235219	532.812820241311	478.297830487538	50.865478175655	520.744509682659	656.389337730007	96.193452424084	539.192005435402	568.035762585944	40.524535081508	586.446656310880	774.266554983708	37.873207573888	557.042863961042	845.269120114839	36.540116782050	345.662806880542	925.477521590699	40.271726892775	271.664419811449	994.957649531183	116.296708530094	299.874916108438	1129.967806565710	85.160753937990	283.980139933936	609.617948018804	1102.609359108119	197.927888711662	617.994532255133	839.644950844424	212.950293847357	994.336218933785	1128.258172171379	706.199858818237	1181.463277572311	1242.444559645003	587.457270657938	
74	33.483571428571	585.112912561064	1000.781401366352	491.163127686844	765.914710262972	1417.606538185687	286.923123617967	885.763671845755	1341.564778329300	432.362568697674	834.613531740126	1425.067667275987	612.313531105796	783.955130018394	1479.677981672615	441.873716289867	821.293718301139	924.059538026736	584.424167426195	781.400789801290	948.246123805560	312.731260716942	827.534177485245	714.044795413306	544.606862905486	733.982177536744	612.471955917698	607.699480508514	791.424788808310	553.341779768821	518.562752851872	776.210745963025	460.252453259861	521.120764743791	856.056981572369	761.231724897302	344.381213350546	802.048258306388	634.322559339035	266.375348948454	900.635342122815	574.888526794940	331.849728069412	921.625367663671	509.980884842617	330.583624628933	908.016597143479	438.160176480626	316.375232357616	846.281576197983	309.725768018791	257.822913620651	929.384726199663	209.710982834299	317.387765644643	724.005194377496	380.731016474239	530.105864803080	637.899357516527	295.200809635629	601.264291931661	644.941525250792	196.731233282807	532.307100557935	473.012052564480	51.311130565407	520.554995168761	651.207579670749	96.248085294560	538.978098050423	562.714893925371	40.852255565575	586.314718651323	768.940358846500	37.791732626973	557.077631709574	840.366439138164	36.321586044062	345.941410613330	920.494950298219	38.370798498596	271.672804304245	991.838798474946	112.383698262005	300.342178141159	1126.135685292443	77.860025943957	284.165193531752	613.543162021888	1098.715869536558	194.832850356019	622.329758243618	835.776868218627	210.608517973035	997.509331466168	1129.650663761208	702.518871505868	1180.712396727597	1247.717959843469	582.011448196138	
75	33.501428571429	587.945020763996	999.405511339483	488.165398430146	768.259209834793	1414.939472881988	281.782225705693	888.022676209405	1340.265001997509	427.996625959428	836.165804755985	1424.842513147577	607.341119948449	785.955451916041	1478.284698172093	436.305516821995	824.045978450927	923.180958888269	582.855311967126	785.014496104891	946.265444916892	310.944294482147	829.021311064630	712.509128696699	543.413281604461	734.004586301492	611.665421766382	606.150807703502	790.973676050820	551.912934480667	517.354888477731	774.415310855870	458.751215607060	519.745775182912	860.502023629743	760.054016445665	343.258784774641	806.100585293181	633.023311366500	265.784519307643	905.107949976996	574.038708478573	330.721352142838	924.952335858831	508.018328050408	329.776477681783	910.777271507116	435.704597097929	315.666269188095	846.980702697084	308.216006418034	257.360962006591	927.983398680536	206.985057088302	317.432110594000	721.542375214330	379.811495922554	529.088204844528	634.570261588350	295.235372700886	600.387584091177	640.805241800157	196.542492816430	531.762766197234	467.826743878397	52.190115036983	520.415213930789	646.173760841260	96.376502212270	538.782549471919	557.483149003933	41.405557820217	586.208807350349	763.651108285838	37.660030161026	557.101138591309	835.047078486797	36.301744370028	346.107720715821	915.126571685110	36.721034664191	271.595022676023	988.374128148533	108.681827076748	300.788081414042	1121.914496975333	70.766004666277	284.362206236942	618.094093471263	1094.361991446521	191.688450026371	627.426329814872	831.446702054084	207.514242774156	999.847676384556	1130.322254799417	698.772015096873	1179.816224084140	1251.424174039319	576.922441432248	
76	33.519285714286	590.811291826870	998.222999528283	485.156455214687	770.656913244289	1412.399173162440	276.568563170615	890.352426559314	1339.074610354370	423.514014829163	837.928904920342	1424.733686967705	602.286085838030	788.089132861775	1477.038118283131	430.634484672859	826.832475576951	922.420484326662	581.118474019202	788.597708015688	944.576544046429	309.012416370196	830.724251816850	711.148870112832	542.043973802054	734.509954337089	610.936258273411	604.483902002565	791.096643896347	550.621325550619	515.995410197136	773.302447299539	457.335453513336	518.301126098487	865.143566701692	759.435811015631	342.191718724367	810.773837770490	632.167887997254	265.200316275121	910.173282238611	573.609160726251	329.658541410864	928.994039747711	506.437808316108	329.070633389723	914.091376880625	433.594255002096	315.116697312942	848.162276128174	307.189602476528	256.829356255481	926.673942171368	204.601382892273	317.542202561249	719.661817160560	378.991253888443	528.017586650169	631.705035110089	295.514099061648	599.483321929896	636.984443235955	196.565756327616	531.249497305589	462.769398360591	53.599394606581	520.340404122176	641.334541575199	96.598239990533	538.637077061898	552.357191283391	42.228304617250	586.139326306656	758.400321737419	37.476362274527	557.114071817882	829.553562131922	36.443138315150	346.175092853042	909.617457178124	35.425144873654	271.466298492559	984.664684973034	105.422598481067	301.234389071915	1117.457336010792	64.368227400720	284.597728291729	623.170559764593	1089.853721840182	188.488429150139	633.320643281210	826.961759846676	203.687616599325	1001.441499169192	1130.381467739447	694.948574803325	1178.929287006798	1253.674325834259	572.125887686285	
77	33.537142857143	593.720690574824	997.343638427477	482.115610781401	773.117958061719	1410.153838104620	271.360911545208	892.761253431063	1338.101548884731	418.967393103325	839.922694981838	1424.811507169676	597.212839814105	790.358984468635	1476.043369028684	424.961271118367	829.615407297739	921.874025424254	579.199846149670	792.162276855157	943.273831855853	306.909787253066	832.540576318704	710.046876934462	540.552132512820	735.366288671589	610.397605332759	602.775269734160	791.677841497943	549.546974177889	514.595476621101	772.771364750485	456.108074710746	516.933911512393	869.872726271831	759.345433345819	341.186108458201	815.890704831334	631.725367842484	264.605469714715	915.576298834810	573.517737724685	328.712041125625	933.532774972599	505.226846048602	328.539895700321	917.760253259241	431.851457481528	314.788506509056	849.731986318706	306.640617923954	256.274331402029	925.417122690394	202.621180065991	317.764673100692	718.282535471939	378.363859748898	527.002224446214	629.225521477297	296.115767596203	598.630154031971	633.462394305973	196.872293600683	530.835296815143	457.861338959964	55.590842217572	520.338376846841	636.719365608303	96.924391389233	538.571609055173	547.345281504589	43.340358968620	586.112888416246	753.184113401630	37.245683417143	557.117760856297	824.040733339821	36.694801521666	346.166135958501	904.118588972961	34.525473679068	271.321678444596	980.757266873416	102.739112225644	301.701699898961	1112.854781470466	58.975586138086	284.878373590034	628.641657472319	1085.492628746720	185.198338663251	640.052248432020	822.636356225712	199.174498494554	1002.414149990219	1129.962142170226	691.053416379161	1178.216981805809	1254.601783937800	567.561074272091	
